<?xml version="1.0" encoding="UTF-8"?>
<svg id="_레이어_2" data-name="레이어_2" xmlns="http://www.w3.org/2000/svg" viewBox="0 0 200.75 45.81">
  <defs>
    <style>
      .cls-1 {
        fill: #221e1f;
      }
    </style>
  </defs>
  <g id="Layer_1">
    <g>
      <g>
        <path class="cls-1" d="M24.91,18.7c-1.31-1.22-2.72-2.19-4.24-2.92-1.53-.73-3.19-1.09-5.02-1.09-3.32,0-6.18,1.24-8.6,3.71-2.42,2.48-3.63,5.42-3.63,8.83s1.22,6.46,3.65,8.9c2.43,2.43,5.39,3.65,8.9,3.65,1.73,0,3.33-.39,4.81-1.17,1.47-.78,2.85-1.71,4.13-2.81v4.2c-.31.21-.6.4-.89.57-.29.17-.58.34-.89.53-1.18.64-2.37,1.1-3.55,1.39-1.19.29-2.44.43-3.75.43-4.41,0-8.15-1.53-11.22-4.61-3.07-3.07-4.61-6.81-4.61-11.22s1.57-7.88,4.7-10.97c3.13-3.08,6.86-4.63,11.18-4.63,1.03,0,2,.09,2.9.25.9.17,1.78.43,2.67.8.54.21,1.11.48,1.68.83.58.33,1.17.71,1.78,1.14v4.2Z"/>
        <path class="cls-1" d="M34.84,33.8l-3.64,8.63h-3.69l14-31.89,13.69,31.89h-3.74l-3.6-8.63h-13ZM41.46,18.47l-5.2,12.18h10.26l-5.06-12.18Z"/>
        <path class="cls-1" d="M62.49,15.19v9.03h14.84v3.14h-14.84v15.05h-3.42V12h18.58v3.19h-15.16Z"/>
        <path class="cls-1" d="M86.1,15.19v9.03h12.94v3.14h-12.94v11.91h14.55v3.14h-17.97V12h17.97v3.19h-14.55Z"/>
      </g>
      <g>
        <path class="cls-1" d="M139.19,6.85c-3.15-4.54-7.21-6.85-12.07-6.85s-8.77,2.32-11.96,6.9c-3.03,4.35-4.57,9.75-4.57,16.06s1.54,11.66,4.58,15.99c3.19,4.55,7.21,6.86,11.95,6.86s8.81-2.31,11.99-6.86c3.03-4.32,4.57-9.72,4.57-16.04s-1.52-11.77-4.5-16.06ZM135.12,22.85c0,4.34-.88,8.01-2.6,10.91-3.06,5.14-7.76,5.23-10.85.04-1.7-2.86-2.57-6.55-2.57-10.94s.87-7.96,2.6-10.83c1.55-2.58,3.32-3.82,5.42-3.82s3.9,1.24,5.43,3.81c1.71,2.88,2.58,6.52,2.58,10.84Z"/>
        <path class="cls-1" d="M162.13,13.22l1.35-4.35h13.5V.55h-19.66l-6.5,21.41,3.19,1.79c.93-.59,1.76-1.07,2.52-1.42.69-.33,1.36-.58,1.94-.75.38-.1.77-.16,1.12-.2,2.47-.19,5,.37,6.85,2.26,1.54,1.57,2.28,3.42,2.28,5.65,0,2.36-.75,4.3-2.3,5.93-1.52,1.6-3.33,2.38-5.53,2.38-1.7,0-3.12-.34-4.25-1.02-1.18-.7-2.33-1.93-3.41-3.63l-1.15-1.82-6.88,4.91,1,1.62c1.72,2.76,3.79,4.82,6.16,6.15,2.37,1.31,5.18,1.99,8.35,1.99,4.63,0,8.58-1.59,11.75-4.73,3.17-3.15,4.77-7.06,4.77-11.66s-1.48-8.51-4.4-11.56c-2.82-2.95-6.41-4.51-10.69-4.64Z"/>
        <polygon class="cls-1" points="188.65 .55 184 8.87 192.12 8.87 192.12 45.2 200.75 45.2 200.75 .55 188.65 .55"/>
      </g>
    </g>
  </g>
</svg>